<svg width="487" height="62" viewBox="0 0 487 62" fill="none" xmlns="http://www.w3.org/2000/svg">
<path d="M20.6315 61.6795C16.1018 61.6795 12.1666 60.547 8.82588 58.2822C5.54183 56.0173 3.19203 52.9031 1.77648 48.9396C0.813916 46.1085 0.332632 42.7678 0.332632 38.9175C0.332632 35.1239 0.813916 31.8398 1.77648 29.0654C3.13541 25.2151 5.48521 22.1858 8.82588 19.9776C12.1666 17.7693 16.1018 16.6652 20.6315 16.6652C25.1612 16.6652 29.1248 17.7977 32.5221 20.0625C35.976 22.3274 38.2692 25.1868 39.4016 28.6407C39.8546 29.9996 40.0811 31.0188 40.0811 31.6983V31.8681C40.0811 32.3777 39.7979 32.6892 39.2317 32.8024L29.4645 34.2463H29.2946C28.785 34.2463 28.4453 33.9631 28.2754 33.3969L28.0206 32.038C27.6243 30.5658 26.7466 29.3485 25.3877 28.3859C24.0288 27.4233 22.4151 26.9421 20.5466 26.9421C18.7347 26.9421 17.2059 27.395 15.9602 28.301C14.7145 29.2069 13.8369 30.4526 13.3273 32.038C12.7045 33.7367 12.3931 36.0581 12.3931 39.0025C12.3931 41.9468 12.6762 44.2683 13.2424 45.9669C13.752 47.6656 14.6296 48.9962 15.8753 49.9588C17.1776 50.9213 18.7347 51.4026 20.5466 51.4026C22.3018 51.4026 23.8306 50.9497 25.1329 50.0437C26.4918 49.0811 27.4261 47.7788 27.9357 46.1368C27.9923 46.0236 28.0206 45.8537 28.0206 45.6272C28.0773 45.5706 28.1056 45.4857 28.1056 45.3724C28.1622 44.693 28.5585 44.4098 29.2946 44.5231L39.0619 46.0519C39.6281 46.1651 39.9112 46.4765 39.9112 46.9861C39.9112 47.4391 39.7413 48.2884 39.4016 49.5341C38.2125 53.3278 35.891 56.3004 32.4371 58.452C29.0398 60.6036 25.1046 61.6795 20.6315 61.6795ZM64.9875 61.6795C60.2313 61.6795 56.1545 60.4338 52.7572 57.9424C49.3599 55.4511 47.0384 52.0538 45.7928 47.7505C45.0001 45.0893 44.6037 42.2016 44.6037 39.0874C44.6037 35.7467 45.0001 32.7458 45.7928 30.0846C47.0951 25.8946 49.4449 22.6105 52.8422 20.2324C56.2395 17.8543 60.3162 16.6652 65.0724 16.6652C69.7154 16.6652 73.6789 17.8543 76.963 20.2324C80.2471 22.5539 82.5685 25.8096 83.9275 29.9996C84.8334 32.8307 85.2864 35.8034 85.2864 38.9175C85.2864 41.9751 84.89 44.8345 84.0973 47.4957C82.8516 51.9122 80.5302 55.3945 77.1329 57.9424C73.7922 60.4338 69.7437 61.6795 64.9875 61.6795ZM64.9875 51.4026C66.856 51.4026 68.4414 50.8364 69.7437 49.704C71.046 48.5715 71.9803 47.0144 72.5465 45.0327C72.9995 43.2208 73.226 41.239 73.226 39.0874C73.226 36.7093 72.9995 34.6992 72.5465 33.0572C71.9237 31.1321 70.9611 29.6316 69.6588 28.5558C68.3565 27.48 66.7711 26.9421 64.9026 26.9421C62.9774 26.9421 61.3637 27.48 60.0614 28.5558C58.8157 29.6316 57.9098 31.1321 57.3436 33.0572C56.8906 34.4161 56.6641 36.4262 56.6641 39.0874C56.6641 41.6354 56.8623 43.6171 57.2587 45.0327C57.8249 47.0144 58.7591 48.5715 60.0614 49.704C61.4203 50.8364 63.0624 51.4026 64.9875 51.4026ZM140.547 16.6652C144.963 16.6652 148.417 17.9958 150.909 20.6571C153.4 23.3183 154.646 27.0553 154.646 31.8681V59.9808C154.646 60.2639 154.532 60.5187 154.306 60.7452C154.136 60.9151 153.91 61 153.627 61H143.689C143.406 61 143.152 60.9151 142.925 60.7452C142.755 60.5187 142.67 60.2639 142.67 59.9808V34.5011C142.67 32.1796 142.076 30.3394 140.887 28.9804C139.698 27.6215 138.112 26.9421 136.13 26.9421C134.149 26.9421 132.535 27.6215 131.289 28.9804C130.044 30.3394 129.421 32.1513 129.421 34.4161V59.9808C129.421 60.2639 129.308 60.5187 129.081 60.7452C128.911 60.9151 128.685 61 128.402 61H118.549C118.266 61 118.012 60.9151 117.785 60.7452C117.615 60.5187 117.53 60.2639 117.53 59.9808V34.5011C117.53 32.2362 116.907 30.4243 115.662 29.0654C114.416 27.6498 112.802 26.9421 110.821 26.9421C109.009 26.9421 107.48 27.48 106.234 28.5558C105.045 29.6316 104.337 31.1321 104.111 33.0572V59.9808C104.111 60.2639 103.998 60.5187 103.771 60.7452C103.601 60.9151 103.375 61 103.092 61H93.1546C92.8715 61 92.6167 60.9151 92.3902 60.7452C92.2203 60.5187 92.1354 60.2639 92.1354 59.9808V18.3639C92.1354 18.0808 92.2203 17.8543 92.3902 17.6844C92.6167 17.4579 92.8715 17.3447 93.1546 17.3447H103.092C103.375 17.3447 103.601 17.4579 103.771 17.6844C103.998 17.8543 104.111 18.0808 104.111 18.3639V21.6762C104.111 21.8461 104.168 21.9594 104.281 22.016C104.394 22.0726 104.507 22.016 104.62 21.8461C106.942 18.3922 110.537 16.6652 115.407 16.6652C118.238 16.6652 120.701 17.2598 122.796 18.4488C124.948 19.6379 126.59 21.3365 127.722 23.5448C127.892 23.8845 128.09 23.8845 128.317 23.5448C129.562 21.2233 131.233 19.4963 133.328 18.3639C135.479 17.2314 137.886 16.6652 140.547 16.6652ZM210.613 16.6652C215.029 16.6652 218.483 17.9958 220.975 20.6571C223.466 23.3183 224.712 27.0553 224.712 31.8681V59.9808C224.712 60.2639 224.598 60.5187 224.372 60.7452C224.202 60.9151 223.976 61 223.693 61H213.755C213.472 61 213.218 60.9151 212.991 60.7452C212.821 60.5187 212.736 60.2639 212.736 59.9808V34.5011C212.736 32.1796 212.142 30.3394 210.953 28.9804C209.764 27.6215 208.178 26.9421 206.196 26.9421C204.215 26.9421 202.601 27.6215 201.355 28.9804C200.11 30.3394 199.487 32.1513 199.487 34.4161V59.9808C199.487 60.2639 199.374 60.5187 199.147 60.7452C198.977 60.9151 198.751 61 198.468 61H188.615C188.332 61 188.078 60.9151 187.851 60.7452C187.681 60.5187 187.596 60.2639 187.596 59.9808V34.5011C187.596 32.2362 186.973 30.4243 185.728 29.0654C184.482 27.6498 182.868 26.9421 180.887 26.9421C179.075 26.9421 177.546 27.48 176.3 28.5558C175.111 29.6316 174.403 31.1321 174.177 33.0572V59.9808C174.177 60.2639 174.064 60.5187 173.837 60.7452C173.667 60.9151 173.441 61 173.158 61H163.221C162.937 61 162.683 60.9151 162.456 60.7452C162.286 60.5187 162.201 60.2639 162.201 59.9808V18.3639C162.201 18.0808 162.286 17.8543 162.456 17.6844C162.683 17.4579 162.937 17.3447 163.221 17.3447H173.158C173.441 17.3447 173.667 17.4579 173.837 17.6844C174.064 17.8543 174.177 18.0808 174.177 18.3639V21.6762C174.177 21.8461 174.234 21.9594 174.347 22.016C174.46 22.0726 174.573 22.016 174.686 21.8461C177.008 18.3922 180.603 16.6652 185.473 16.6652C188.304 16.6652 190.767 17.2598 192.862 18.4488C195.014 19.6379 196.656 21.3365 197.788 23.5448C197.958 23.8845 198.156 23.8845 198.383 23.5448C199.628 21.2233 201.299 19.4963 203.394 18.3639C205.545 17.2314 207.952 16.6652 210.613 16.6652ZM270.663 34.6709C271.003 36.8225 271.116 39.229 271.003 41.8902C270.946 42.5696 270.578 42.9094 269.898 42.9094H243.654C243.315 42.9094 243.201 43.0509 243.315 43.334C243.484 44.4665 243.796 45.5989 244.249 46.7313C245.721 49.9022 248.722 51.4876 253.252 51.4876C256.876 51.4309 259.735 49.9588 261.83 47.0711C262.056 46.7313 262.311 46.5615 262.594 46.5615C262.764 46.5615 262.962 46.6747 263.189 46.9012L269.304 52.9314C269.587 53.2145 269.729 53.4693 269.729 53.6958C269.729 53.809 269.615 54.0355 269.389 54.3753C267.52 56.6968 265.114 58.5086 262.17 59.8109C259.225 61.0566 255.998 61.6795 252.487 61.6795C247.618 61.6795 243.484 60.5753 240.087 58.3671C236.746 56.1588 234.34 53.073 232.868 49.1094C231.679 46.2784 231.084 42.5696 231.084 37.9833C231.084 34.8691 231.509 32.1229 232.358 29.7448C233.661 25.7247 235.925 22.5256 239.153 20.1475C242.437 17.7693 246.316 16.5803 250.789 16.5803C256.451 16.5803 260.981 18.2223 264.378 21.5064C267.832 24.7904 269.927 29.1786 270.663 34.6709ZM250.874 26.9421C247.306 26.9421 244.957 28.6124 243.824 31.9531C243.598 32.6892 243.4 33.5951 243.23 34.6709C243.23 34.954 243.371 35.0956 243.654 35.0956H258.348C258.687 35.0956 258.801 34.954 258.687 34.6709C258.404 33.0289 258.263 32.2362 258.263 32.2928C257.753 30.5942 256.847 29.2919 255.545 28.3859C254.299 27.4233 252.742 26.9421 250.874 26.9421ZM299.277 16.7502C301.315 16.7502 302.929 17.1465 304.118 17.9392C304.571 18.1657 304.741 18.5904 304.627 19.2132L302.844 28.8955C302.787 29.575 302.391 29.7731 301.655 29.49C300.805 29.2069 299.814 29.0654 298.682 29.0654C298.229 29.0654 297.606 29.122 296.813 29.2352C294.775 29.4051 293.048 30.1695 291.633 31.5284C290.217 32.8307 289.509 34.586 289.509 36.7942V59.9808C289.509 60.2639 289.396 60.5187 289.17 60.7452C289 60.9151 288.773 61 288.49 61H278.553C278.27 61 278.015 60.9151 277.789 60.7452C277.619 60.5187 277.534 60.2639 277.534 59.9808V18.3639C277.534 18.0808 277.619 17.8543 277.789 17.6844C278.015 17.4579 278.27 17.3447 278.553 17.3447H288.49C288.773 17.3447 289 17.4579 289.17 17.6844C289.396 17.8543 289.509 18.0808 289.509 18.3639V21.5913C289.509 21.7612 289.566 21.8744 289.679 21.931C289.792 21.9877 289.877 21.9594 289.934 21.8461C292.255 18.4488 295.37 16.7502 299.277 16.7502ZM327.314 61.6795C322.784 61.6795 318.849 60.547 315.509 58.2822C312.225 56.0173 309.875 52.9031 308.459 48.9396C307.497 46.1085 307.015 42.7678 307.015 38.9175C307.015 35.1239 307.497 31.8398 308.459 29.0654C309.818 25.2151 312.168 22.1858 315.509 19.9776C318.849 17.7693 322.784 16.6652 327.314 16.6652C331.844 16.6652 335.807 17.7977 339.205 20.0625C342.659 22.3274 344.952 25.1868 346.084 28.6407C346.537 29.9996 346.764 31.0188 346.764 31.6983V31.8681C346.764 32.3777 346.481 32.6892 345.914 32.8024L336.147 34.2463H335.977C335.468 34.2463 335.128 33.9631 334.958 33.3969L334.703 32.038C334.307 30.5658 333.429 29.3485 332.07 28.3859C330.712 27.4233 329.098 26.9421 327.229 26.9421C325.417 26.9421 323.889 27.395 322.643 28.301C321.397 29.2069 320.52 30.4526 320.01 32.038C319.387 33.7367 319.076 36.0581 319.076 39.0025C319.076 41.9468 319.359 44.2683 319.925 45.9669C320.435 47.6656 321.312 48.9962 322.558 49.9588C323.86 50.9213 325.417 51.4026 327.229 51.4026C328.985 51.4026 330.513 50.9497 331.816 50.0437C333.175 49.0811 334.109 47.7788 334.618 46.1368C334.675 46.0236 334.703 45.8537 334.703 45.6272C334.76 45.5706 334.788 45.4857 334.788 45.3724C334.845 44.693 335.241 44.4098 335.977 44.5231L345.745 46.0519C346.311 46.1651 346.594 46.4765 346.594 46.9861C346.594 47.4391 346.424 48.2884 346.084 49.5341C344.895 53.3278 342.574 56.3004 339.12 58.452C335.723 60.6036 331.787 61.6795 327.314 61.6795ZM391.035 34.6709C391.375 36.8225 391.488 39.229 391.375 41.8902C391.318 42.5696 390.95 42.9094 390.27 42.9094H364.026C363.687 42.9094 363.573 43.0509 363.687 43.334C363.856 44.4665 364.168 45.5989 364.621 46.7313C366.093 49.9022 369.094 51.4876 373.624 51.4876C377.247 51.4309 380.107 49.9588 382.202 47.0711C382.428 46.7313 382.683 46.5615 382.966 46.5615C383.136 46.5615 383.334 46.6747 383.561 46.9012L389.676 52.9314C389.959 53.2145 390.101 53.4693 390.101 53.6958C390.101 53.809 389.987 54.0355 389.761 54.3753C387.892 56.6968 385.486 58.5086 382.542 59.8109C379.597 61.0566 376.37 61.6795 372.859 61.6795C367.99 61.6795 363.856 60.5753 360.459 58.3671C357.118 56.1588 354.712 53.073 353.24 49.1094C352.051 46.2784 351.456 42.5696 351.456 37.9833C351.456 34.8691 351.881 32.1229 352.73 29.7448C354.033 25.7247 356.297 22.5256 359.525 20.1475C362.809 17.7693 366.687 16.5803 371.161 16.5803C376.823 16.5803 381.353 18.2223 384.75 21.5064C388.204 24.7904 390.299 29.1786 391.035 34.6709ZM371.246 26.9421C367.678 26.9421 365.329 28.6124 364.196 31.9531C363.97 32.6892 363.771 33.5951 363.602 34.6709C363.602 34.954 363.743 35.0956 364.026 35.0956H378.72C379.059 35.0956 379.173 34.954 379.059 34.6709C378.776 33.0289 378.635 32.2362 378.635 32.2928C378.125 30.5942 377.219 29.2919 375.917 28.3859C374.671 27.4233 373.114 26.9421 371.246 26.9421ZM396.971 61C396.349 61 396.122 60.6886 396.292 60.0657L415.062 2.22669C415.232 1.77372 415.572 1.54723 416.081 1.54723H420.328C420.951 1.54723 421.177 1.85865 421.007 2.48149L402.237 60.3205C402.067 60.7735 401.728 61 401.218 61H396.971ZM459.43 18.8735C459.43 18.3073 459.713 18.0241 460.279 18.0241H464.611C465.177 18.0241 465.46 18.3073 465.46 18.8735V60.1507C465.46 60.7169 465.177 61 464.611 61H460.279C459.713 61 459.43 60.7169 459.43 60.1507V56.4986C459.43 56.3853 459.373 56.3004 459.26 56.2438C459.147 56.1872 459.062 56.2155 459.005 56.3287C456.627 59.8393 452.862 61.5945 447.709 61.5945C444.992 61.5945 442.472 61.0566 440.15 59.9808C437.885 58.8484 436.074 57.2347 434.715 55.1397C433.412 53.0447 432.761 50.525 432.761 47.5807V18.8735C432.761 18.3073 433.044 18.0241 433.611 18.0241H437.942C438.508 18.0241 438.791 18.3073 438.791 18.8735V45.7971C438.791 49.0245 439.697 51.6008 441.509 53.5259C443.321 55.3945 445.784 56.3287 448.898 56.3287C452.126 56.3287 454.674 55.3661 456.542 53.441C458.467 51.5159 459.43 48.9679 459.43 45.7971V18.8735ZM482.203 10.2104C480.844 10.2104 479.712 9.75738 478.806 8.85143C477.9 7.94548 477.447 6.81305 477.447 5.45413C477.447 4.03859 477.9 2.90616 478.806 2.05683C479.712 1.15088 480.844 0.697909 482.203 0.697909C483.562 0.697909 484.695 1.15088 485.601 2.05683C486.506 2.90616 486.959 4.03859 486.959 5.45413C486.959 6.81305 486.506 7.94548 485.601 8.85143C484.695 9.75738 483.562 10.2104 482.203 10.2104ZM479.825 60.9151C479.259 60.9151 478.976 60.632 478.976 60.0657V18.7885C478.976 18.2223 479.259 17.9392 479.825 17.9392H484.157C484.723 17.9392 485.006 18.2223 485.006 18.7885V60.0657C485.006 60.632 484.723 60.9151 484.157 60.9151H479.825Z" fill="#F2F2F2"/>
</svg>
